<svg version="1.1" id="Layer_1" xmlns="http://www.w3.org/2000/svg" xmlns:xlink="http://www.w3.org/1999/xlink" x="0px" y="0px"
	 width="100%" viewBox="0 0 500 512" enable-background="new 0 0 500 512" xml:space="preserve">
<path fill="#47704C" opacity="1.000000" stroke="none" 
	d="
M278.000000,1.000000 
	C352.262909,1.000000 426.525787,1.000000 501.000000,1.000000 
	C501.000000,80.354103 501.000000,159.708389 500.659180,239.284592 
	C499.206421,231.016251 498.032288,222.533463 497.011047,214.032318 
	C496.561859,210.292862 494.960175,208.902161 490.940460,208.908752 
	C414.286407,209.034622 337.631989,209.044907 260.977997,208.900833 
	C256.041870,208.891556 254.845612,210.499527 254.877930,215.191498 
	C255.069656,243.018997 255.099426,270.849609 254.857513,298.676331 
	C254.813065,303.788727 256.318695,305.129517 261.345490,305.107361 
	C304.004395,304.919128 346.664520,304.999939 389.324280,305.000092 
	C391.425690,305.000092 393.527100,305.000122 395.970490,305.000122 
	C391.673523,330.961487 379.829926,352.318848 362.565704,370.728241 
	C356.962738,376.702881 350.110779,381.506226 343.542053,387.021271 
	C310.732391,408.425629 274.805115,415.759705 236.826782,410.614624 
	C188.002869,404.000275 150.746277,378.584503 125.332710,336.385712 
	C119.703392,327.038330 115.777870,316.664825 111.038925,306.376343 
	C108.639969,294.330902 105.239342,282.765259 104.184563,270.989441 
	C103.091171,258.782562 103.516388,246.299225 104.697014,234.073898 
	C105.627556,224.438171 108.713181,215.010559 111.124535,205.215240 
	C112.940987,201.124527 114.451256,197.299561 116.011963,193.495285 
	C123.705002,174.743240 135.283829,158.463745 149.516983,144.336319 
	C159.297638,134.628311 170.427582,126.395889 182.636124,119.497192 
	C204.231125,107.294495 227.401642,101.121758 251.863144,100.241402 
	C263.149597,99.835197 274.711609,101.064934 285.829010,103.209846 
	C310.361298,107.942924 332.407867,118.373405 350.872375,135.529343 
	C353.788452,138.238754 355.370300,138.229401 358.143066,135.473190 
	C379.734253,114.010979 401.473938,92.698189 423.156738,71.328110 
	C424.404602,70.098259 425.556732,68.771255 427.198486,67.012718 
	C421.561829,62.304073 416.303680,57.790974 410.918640,53.434738 
	C391.419464,37.660934 369.907654,25.370937 346.367004,16.730129 
	C330.122681,10.767493 313.572052,5.911829 296.298401,3.845883 
	C290.173096,3.113287 284.098022,1.960799 278.000000,1.000000 
z"/>
<path fill="#EB4335" opacity="1.000000" stroke="none" 
	d="
M277.531342,1.000000 
	C284.098022,1.960799 290.173096,3.113287 296.298401,3.845883 
	C313.572052,5.911829 330.122681,10.767493 346.367004,16.730129 
	C369.907654,25.370937 391.419464,37.660934 410.918640,53.434738 
	C416.303680,57.790974 421.561829,62.304073 427.198486,67.012718 
	C425.556732,68.771255 424.404602,70.098259 423.156738,71.328110 
	C401.473938,92.698189 379.734253,114.010979 358.143066,135.473190 
	C355.370300,138.229401 353.788452,138.238754 350.872375,135.529343 
	C332.407867,118.373405 310.361298,107.942924 285.829010,103.209846 
	C274.711609,101.064934 263.149597,99.835197 251.863144,100.241402 
	C227.401642,101.121758 204.231125,107.294495 182.636124,119.497192 
	C170.427582,126.395889 159.297638,134.628311 149.516983,144.336319 
	C135.283829,158.463745 123.705002,174.743240 116.011963,193.495285 
	C114.451256,197.299561 112.940987,201.124527 110.808029,205.057404 
	C109.132172,204.395935 108.032967,203.646500 106.982681,202.833832 
	C80.672134,182.475906 54.366756,162.111298 28.071747,141.399261 
	C45.176132,106.240753 69.510910,77.334366 100.023537,53.621052 
	C120.428360,37.763145 142.862762,25.328136 167.160446,16.490694 
	C183.231583,10.645376 199.620926,5.827946 216.721298,3.839543 
	C222.841507,3.127896 228.908646,1.959775 235.000000,0.999999 
	C249.020889,1.000000 263.041779,1.000000 277.531342,1.000000 
z"/>
<path fill="#4285F4" opacity="1.000000" stroke="none" 
	d="
M343.830078,386.845276 
	C350.110779,381.506226 356.962738,376.702881 362.565704,370.728241 
	C379.829926,352.318848 391.673523,330.961487 395.970490,305.000122 
	C393.527100,305.000122 391.425690,305.000092 389.324280,305.000092 
	C346.664520,304.999939 304.004395,304.919128 261.345490,305.107361 
	C256.318695,305.129517 254.813065,303.788727 254.857513,298.676331 
	C255.099426,270.849609 255.069656,243.018997 254.877930,215.191498 
	C254.845612,210.499527 256.041870,208.891556 260.977997,208.900833 
	C337.631989,209.044907 414.286407,209.034622 490.940460,208.908752 
	C494.960175,208.902161 496.561859,210.292862 497.011047,214.032318 
	C498.032288,222.533463 499.206421,231.016251 500.659180,239.753250 
	C501.000000,254.020889 501.000000,268.041779 500.706512,282.830933 
	C498.505188,297.610046 497.408752,311.790955 494.515839,325.595398 
	C488.974365,352.038361 479.281372,377.051208 465.304047,400.265594 
	C454.423462,418.336609 441.489807,434.799896 425.652802,449.122498 
	C421.805328,446.560974 418.229889,444.178680 414.831726,441.565826 
	C391.143951,423.352417 367.492920,405.091187 343.830078,386.845276 
z"/>
<path fill="#47704C" opacity="1.000000" stroke="none" 
	d="
M426.006866,449.194977 
	C441.489807,434.799896 454.423462,418.336609 465.304047,400.265594 
	C479.281372,377.051208 488.974365,352.038361 494.515839,325.595398 
	C497.408752,311.790955 498.505188,297.610046 500.706512,283.299561 
	C501.000000,359.631866 501.000000,436.263702 501.000000,512.947754 
	C334.443848,512.947754 167.887650,512.947754 1.000000,512.947754 
	C1.000000,435.312744 1.000000,357.625031 1.359140,279.688538 
	C4.513075,295.019958 6.059720,310.962769 10.451185,326.079132 
	C14.906407,341.414978 22.170721,355.934692 28.293961,371.156830 
	C39.058044,394.157990 53.683243,414.130890 70.825119,432.187012 
	C93.742691,456.326843 120.486855,475.162476 150.860977,489.054718 
	C185.241241,504.779266 221.442993,511.573761 258.894104,511.745636 
	C273.436188,511.812408 288.081818,509.915924 302.519684,507.811859 
	C332.640930,503.422302 361.191223,493.798676 387.087036,477.745453 
	C400.720642,469.293823 413.074921,458.778473 426.006866,449.194977 
z"/>
<path fill="#FBBC05" opacity="1.000000" stroke="none" 
	d="
M28.204746,370.811859 
	C22.170721,355.934692 14.906407,341.414978 10.451185,326.079132 
	C6.059720,310.962769 4.513075,295.019958 1.359140,279.219849 
	C1.000000,263.979095 1.000000,248.958206 1.359119,233.248779 
	C4.155011,218.540649 5.811578,204.327621 9.227364,190.550751 
	C13.434091,173.583801 19.071777,156.966660 28.060459,141.747879 
	C54.366756,162.111298 80.672134,182.475906 106.982681,202.833832 
	C108.032967,203.646500 109.132172,204.395935 110.525101,205.332672 
	C108.713181,215.010559 105.627556,224.438171 104.697014,234.073898 
	C103.516388,246.299225 103.091171,258.782562 104.184563,270.989441 
	C105.239342,282.765259 108.639969,294.330902 110.706238,306.516602 
	C109.822876,307.367706 109.190720,307.623047 108.671341,308.024292 
	C90.837379,321.803070 72.985451,335.558807 55.201195,349.401520 
	C46.138214,356.455841 37.199585,363.669952 28.204746,370.811859 
z"/>
<path fill="#47704C" opacity="1.000000" stroke="none" 
	d="
M28.071745,141.399261 
	C19.071777,156.966660 13.434091,173.583801 9.227364,190.550751 
	C5.811578,204.327621 4.155011,218.540649 1.359119,232.780121 
	C1.000000,155.739304 1.000000,78.478615 1.000000,1.000000 
	C78.687424,1.000000 156.375061,1.000000 234.531342,0.999999 
	C228.908646,1.959775 222.841507,3.127896 216.721298,3.839543 
	C199.620926,5.827946 183.231583,10.645376 167.160446,16.490694 
	C142.862762,25.328136 120.428360,37.763145 100.023537,53.621052 
	C69.510910,77.334366 45.176132,106.240753 28.071745,141.399261 
z"/>
<path fill="#34A853" opacity="1.000000" stroke="none" 
	d="
M28.293957,371.156830 
	C37.199585,363.669952 46.138214,356.455841 55.201195,349.401520 
	C72.985451,335.558807 90.837379,321.803070 108.671341,308.024292 
	C109.190720,307.623047 109.822876,307.367706 110.735130,306.904083 
	C115.777870,316.664825 119.703392,327.038330 125.332710,336.385712 
	C150.746277,378.584503 188.002869,404.000275 236.826782,410.614624 
	C274.805115,415.759705 310.732391,408.425629 343.542053,387.021301 
	C367.492920,405.091187 391.143951,423.352417 414.831726,441.565826 
	C418.229889,444.178680 421.805328,446.560974 425.652802,449.122498 
	C413.074921,458.778473 400.720642,469.293823 387.087036,477.745453 
	C361.191223,493.798676 332.640930,503.422302 302.519684,507.811859 
	C288.081818,509.915924 273.436188,511.812408 258.894104,511.745636 
	C221.442993,511.573761 185.241241,504.779266 150.860977,489.054718 
	C120.486855,475.162476 93.742691,456.326843 70.825119,432.187012 
	C53.683243,414.130890 39.058044,394.157990 28.293957,371.156830 
z"/>
</svg>